<?xml version="1.0" standalone="no"?>
<!DOCTYPE svg PUBLIC "-//W3C//DTD SVG 20010904//EN"
 "http://www.w3.org/TR/2001/REC-SVG-20010904/DTD/svg10.dtd">
<svg version="1.0" xmlns="http://www.w3.org/2000/svg"
 width="300.000000pt" height="97.000000pt" viewBox="0 0 300.000000 97.000000"
 preserveAspectRatio="xMidYMid meet">
<metadata>
Created by potrace 1.10, written by Peter Selinger 2001-2011
</metadata>
<g transform="translate(0.000000,97.000000) scale(0.100000,-0.100000)"
fill="#000000" stroke="none">
<path d="M555 826 c-119 -34 -192 -129 -167 -219 5 -17 7 -38 4 -46 -3 -8 1
-12 9 -9 8 3 12 12 10 19 -3 8 -6 34 -9 59 -7 85 72 167 172 177 34 4 63 0 88
-10 32 -13 38 -14 49 -1 10 13 6 18 -13 15 -4 0 -23 6 -42 14 -40 17 -47 17
-101 1z"/>
<path d="M2592 828 c-30 -30 3 -77 40 -57 30 16 16 69 -17 69 -6 0 -16 -5 -23
-12z"/>
<path d="M1129 803 l-36 -4 4 -167 c3 -92 6 -172 8 -177 4 -15 77 -18 125 -5
75 20 100 113 45 170 -26 27 -26 30 -11 51 9 13 16 37 16 54 0 58 -59 89 -151
78z m19 -51 c-14 -16 -12 -60 4 -79 18 -22 45 -14 73 18 33 40 45 31 15 -11
-17 -23 -20 -34 -11 -43 20 -20 11 -28 -13 -12 -19 13 -29 14 -45 5 -38 -20
-41 -119 -3 -135 12 -5 22 -13 22 -17 0 -13 -60 -9 -61 5 -5 42 -8 274 -4 284
2 7 11 10 20 7 13 -5 13 -9 3 -22z m97 -2 c23 -26 4 -26 -26 0 -18 15 -20 19
-8 20 9 0 24 -9 34 -20z m-35 -33 c0 -17 -20 -37 -37 -37 -13 0 -19 51 -7 63
10 9 44 -12 44 -26z m1 -117 c29 -16 27 -78 -3 -89 -33 -12 -38 -6 -38 50 0
51 7 57 41 39z m54 0 c3 -5 1 -10 -4 -10 -6 0 -11 5 -11 10 0 6 2 10 4 10 3 0
8 -4 11 -10z m15 -50 c0 -46 -57 -99 -75 -70 -3 6 -1 10 6 10 20 0 57 51 52
71 -3 11 0 19 6 19 6 0 11 -14 11 -30z"/>
<path d="M714 759 c7 -45 16 -48 16 -6 0 21 -5 37 -11 37 -6 0 -8 -13 -5 -31z"/>
<path d="M746 765 c4 -16 16 -47 26 -67 13 -25 20 -60 21 -108 1 -38 5 -70 9
-70 3 0 6 28 6 63 -1 34 2 71 6 82 6 16 6 17 -3 5 -9 -13 -11 -12 -12 5 -1 11
-1 24 0 28 1 5 -3 6 -9 2 -5 -3 -10 -3 -11 2 -2 26 -9 44 -24 65 l-16 23 7
-30z"/>
<path d="M570 734 c11 -25 20 -54 20 -65 0 -10 6 -19 14 -19 8 0 16 -7 20 -15
3 -8 1 -15 -4 -15 -14 0 -13 -27 1 -36 6 -3 16 -1 22 5 8 8 5 22 -10 53 -11
24 -26 61 -33 83 -12 37 -25 54 -42 55 -4 0 2 -21 12 -46z"/>
<path d="M1417 759 c-29 -17 -5 -44 40 -44 26 0 38 -5 41 -16 2 -12 -5 -16
-28 -16 -68 0 -114 -56 -91 -112 16 -37 49 -51 121 -51 l60 0 0 96 c0 92 -1
97 -29 125 -31 31 -79 38 -114 18z m103 -39 c6 -11 8 -20 6 -20 -3 0 -10 9
-16 20 -6 11 -8 20 -6 20 3 0 10 -9 16 -20z m15 -74 c-2 -39 -15 -63 -15 -27
0 12 -7 24 -15 28 -14 5 -14 8 1 24 22 25 30 18 29 -25z m-123 -33 c-3 -16 -7
-22 -10 -15 -4 13 4 42 11 42 2 0 2 -12 -1 -27z m86 -5 c-3 -29 -6 -33 -33
-33 -21 0 -31 5 -33 19 -5 22 22 46 51 46 15 0 18 -6 15 -32z m-73 -38 c3 -5
-1 -10 -10 -10 -9 0 -13 5 -10 10 3 6 8 10 10 10 2 0 7 -4 10 -10z m108 -9 c3
-14 0 -17 -14 -14 -15 4 -17 8 -8 19 15 18 16 18 22 -5z"/>
<path d="M1696 749 c-17 -14 -26 -30 -26 -50 0 -27 -3 -29 -32 -27 -28 3 -32
0 -34 -24 -3 -25 0 -28 28 -28 l31 0 -6 -105 c-4 -78 -3 -105 6 -105 13 0 15
19 16 118 1 38 5 62 12 62 7 0 9 -29 5 -95 -3 -52 -1 -95 3 -95 13 0 17 26 20
120 1 46 5 88 7 92 3 4 20 8 38 8 31 0 32 2 28 31 -4 28 -7 30 -35 23 -25 -5
-29 -4 -24 11 4 9 7 19 7 21 0 2 11 4 25 4 21 0 25 5 25 30 0 27 -3 30 -34 30
-19 0 -45 -9 -60 -21z m64 -4 c0 -3 -12 -16 -26 -29 -24 -20 -25 -24 -13 -44
7 -11 22 -23 34 -25 15 -3 14 -5 -6 -6 -15 0 -33 -9 -40 -20 -14 -18 -15 -18
-46 4 l-33 23 25 6 c18 5 27 15 32 37 3 16 15 36 27 44 20 15 46 20 46 10z"/>
<path d="M2335 728 c-11 -6 -22 -12 -24 -14 -1 -1 11 -46 29 -99 31 -93 31
-97 16 -136 -24 -59 -21 -69 17 -69 l32 0 59 151 c32 82 57 152 55 153 -14 12
-51 26 -57 22 -5 -3 -17 -32 -28 -65 -10 -34 -22 -61 -25 -61 -3 0 -14 27 -24
60 -10 34 -21 63 -24 65 -4 2 -15 -1 -26 -7z m28 -59 c4 -16 3 -18 -9 -8 -16
13 -19 29 -5 29 5 0 11 -9 14 -21z m124 9 c-3 -7 -22 -53 -42 -103 -54 -134
-59 -144 -66 -139 -9 5 -1 56 11 68 5 5 5 17 -1 29 -9 15 -8 18 3 11 7 -4 5 1
-4 12 -11 13 -15 28 -11 43 4 17 3 22 -5 17 -8 -4 -12 0 -12 11 1 16 3 15 19
-4 11 -13 26 -23 34 -23 14 0 47 56 47 79 0 6 7 11 16 11 9 0 14 -6 11 -12z"/>
<path d="M2576 633 c-4 -54 -8 -115 -10 -135 l-4 -38 44 0 44 0 0 135 0 135
-34 0 -34 0 -6 -97z m50 51 c-3 -9 -6 -31 -6 -50 0 -20 -4 -33 -8 -30 -10 6
-14 74 -6 87 9 16 26 10 20 -7z m-3 -106 c9 -25 1 -82 -12 -86 -10 -3 -12 3
-9 27 2 17 1 31 -4 31 -4 0 -8 5 -8 11 0 5 5 7 12 3 8 -5 9 -2 5 9 -3 10 -2
17 2 17 5 0 11 -6 14 -12z"/>
<path d="M2128 713 c-43 -5 -45 -10 -51 -160 l-3 -93 35 0 36 0 -3 99 c-3 85
-1 99 14 105 36 14 46 -12 42 -111 l-3 -93 33 0 32 0 0 101 c0 98 -1 101 -29
130 -16 16 -38 28 -48 27 -10 -1 -35 -3 -55 -5z m-5 -48 c-3 -9 -8 -14 -10
-11 -3 3 -2 9 2 15 9 16 15 13 8 -4z"/>
<path d="M1894 700 c-37 -15 -54 -50 -54 -111 0 -42 5 -63 21 -83 27 -34 77
-35 116 -2 28 24 28 24 8 46 l-19 21 -14 -26 c-16 -32 -42 -29 -59 5 -17 34
-4 43 61 38 61 -3 61 -3 46 54 -16 57 -56 79 -106 58z m56 -55 c0 -10 -10 -15
-31 -15 -27 0 -30 2 -19 15 7 8 21 15 31 15 11 0 19 -7 19 -15z m-70 -35 c0
-11 -4 -20 -10 -20 -5 0 -10 9 -10 20 0 11 5 20 10 20 6 0 10 -9 10 -20z m95
10 c3 -5 1 -10 -4 -10 -6 0 -11 5 -11 10 0 6 2 10 4 10 3 0 8 -4 11 -10z"/>
<path d="M430 683 c0 -11 6 -26 14 -32 23 -19 28 14 5 35 -18 16 -19 16 -19
-3z"/>
<path d="M712 646 c-1 -33 2 -57 9 -62 12 -7 29 12 29 35 0 11 -3 11 -15 1
-12 -10 -15 -10 -15 4 0 9 5 16 10 16 6 0 10 14 10 30 0 17 -5 30 -12 30 -9 0
-14 -19 -16 -54z"/>
<path d="M852 675 c-1 -14 -9 -48 -18 -75 -21 -65 -12 -87 14 -30 28 62 38
130 20 130 -7 0 -15 -11 -16 -25z"/>
<path d="M465 630 c-7 -11 12 -50 25 -50 15 0 18 14 9 38 -9 23 -24 29 -34 12z"/>
<path d="M210 587 c-76 -40 -120 -96 -120 -155 0 -27 49 -166 56 -159 2 2 -5
27 -16 55 -11 29 -20 60 -19 70 1 9 8 -5 18 -33 9 -27 20 -56 25 -64 8 -12 10
-22 15 -68 0 -7 6 -13 11 -13 14 0 12 66 -2 82 -16 16 -48 108 -48 137 0 29
34 90 66 118 15 12 46 25 73 28 68 9 72 13 16 14 -27 1 -61 -5 -75 -12z"/>
<path d="M251 569 c-13 -5 -22 -11 -19 -14 5 -5 78 14 78 20 0 8 -33 4 -59 -6z"/>
<path d="M330 570 c0 -5 9 -10 20 -10 11 0 20 5 20 10 0 6 -9 10 -20 10 -11 0
-20 -4 -20 -10z"/>
<path d="M500 570 c0 -5 4 -10 9 -10 5 0 12 -10 16 -22 4 -14 8 -18 12 -10 2
6 9 10 14 6 16 -10 9 13 -9 29 -21 19 -42 22 -42 7z"/>
<path d="M605 517 c-24 -12 -35 -24 -35 -40 0 -37 12 -45 85 -54 62 -7 70 -11
73 -30 3 -17 -2 -23 -16 -23 -11 0 -22 -5 -24 -11 -2 -7 -18 2 -35 20 -35 35
-43 38 -43 16 0 -9 -7 -18 -15 -21 -8 -3 -20 -25 -26 -47 -10 -39 -10 -42 17
-64 19 -14 31 -18 35 -11 4 6 13 8 20 6 8 -3 25 -1 38 4 15 5 28 5 36 -2 9 -8
14 -5 19 12 4 14 9 18 12 11 4 -10 11 -9 29 3 18 12 24 12 28 2 7 -21 20 -1
21 32 1 19 5 28 13 26 16 -6 5 25 -14 41 -11 9 -12 22 -5 63 7 37 6 52 -2 54
-6 2 -36 10 -66 19 -65 20 -98 18 -145 -6z m54 -21 c-13 -11 -49 -16 -49 -6 0
14 44 31 49 18 1 -5 1 -11 0 -12z m65 2 c-5 -8 -2 -9 9 -5 10 4 28 2 41 -3 22
-8 23 -12 16 -52 -5 -24 -5 -47 0 -53 17 -21 15 -51 -3 -67 -11 -10 -23 -16
-26 -13 -4 2 -25 -2 -47 -10 -21 -8 -56 -14 -77 -15 -43 0 -56 18 -39 55 9 19
16 23 34 18 39 -10 86 -7 102 6 17 14 22 61 7 61 -5 0 -16 15 -25 33 -11 23
-16 27 -16 12 0 -18 -1 -18 -16 3 -19 27 -14 37 21 40 18 1 24 -2 19 -10z
m-54 -42 c0 -8 -4 -18 -10 -21 -5 -3 -10 3 -10 14 0 12 5 21 10 21 6 0 10 -6
10 -14z"/>
<path d="M250 452 c0 -56 6 -76 19 -68 10 6 0 126 -10 126 -5 0 -9 -26 -9 -58z"/>
<path d="M341 488 c-16 -42 -23 -108 -13 -108 12 0 18 17 31 83 9 49 -3 65
-18 25z"/>
<path d="M407 409 c-26 -46 -30 -77 -8 -53 14 14 51 83 51 94 0 23 -17 7 -43
-41z"/>
<path d="M166 418 c8 -40 37 -85 42 -69 2 6 -3 27 -12 45 -9 19 -16 39 -16 45
0 6 -5 11 -11 11 -7 0 -8 -11 -3 -32z"/>
<path d="M2100 430 c-91 -4 -211 -8 -267 -9 -84 -1 -103 -4 -103 -16 0 -11
-12 -15 -44 -15 -25 0 -47 4 -51 10 -3 5 -11 7 -18 5 -7 -2 -133 -14 -282 -26
-148 -12 -272 -23 -274 -25 -2 -2 9 -18 25 -37 l29 -33 130 26 c122 25 199 36
515 75 105 12 447 35 543 35 15 0 27 5 27 10 0 6 -15 9 -32 8 -18 -1 -107 -5
-198 -8z m-919 -101 c-14 -6 -28 -6 -33 -1 -5 5 5 9 24 10 31 0 31 -1 9 -9z"/>
<path d="M2420 430 c0 -6 26 -10 59 -10 32 0 86 -3 120 -6 54 -6 61 -5 55 10
-5 13 -24 16 -120 16 -69 0 -114 -4 -114 -10z"/>
<path d="M2590 368 c-19 -5 -52 -14 -72 -19 -30 -8 -38 -15 -38 -33 0 -13 7
-30 17 -37 15 -13 15 -12 4 10 -11 19 -11 25 0 32 19 12 59 23 65 17 4 -5 -10
-56 -26 -93 -14 -32 -16 -58 -4 -62 7 -2 18 30 30 81 18 82 19 85 48 88 16 2
31 9 34 16 4 14 -9 14 -58 0z"/>
<path d="M2413 363 c-22 -8 -14 -21 8 -16 19 5 20 4 10 -16 -9 -17 -9 -21 2
-21 19 0 30 42 14 52 -13 9 -16 9 -34 1z"/>
<path d="M2225 271 c-26 -50 -53 -91 -61 -91 -21 0 -18 78 5 123 20 39 14 54
-16 37 -10 -5 -30 -14 -45 -20 -28 -9 -37 -33 -18 -45 6 -3 10 0 10 8 0 7 12
19 26 26 24 10 26 10 19 -6 -4 -10 -10 -41 -12 -68 -4 -39 -1 -54 11 -64 22
-19 40 -9 60 33 21 45 26 45 23 1 -1 -18 3 -34 8 -34 6 -1 10 12 11 27 2 54
16 113 31 128 11 11 13 18 5 26 -7 7 -25 -18 -57 -81z"/>
<path d="M393 343 c-23 -9 -13 -21 22 -27 117 -20 111 -20 96 -2 -8 10 -23 15
-32 13 -10 -3 -23 1 -30 9 -11 14 -33 17 -56 7z"/>
<path d="M2372 338 c-17 -17 -15 -31 9 -82 12 -24 19 -51 16 -59 -8 -21 -43
-11 -67 21 -11 14 -23 22 -27 18 -12 -12 11 -40 48 -59 34 -17 34 -17 56 8
l23 26 -26 49 c-16 31 -23 57 -19 70 7 23 4 25 -13 8z"/>
<path d="M228 333 c-13 -3 -18 -15 -18 -42 0 -21 -3 -52 -6 -69 -6 -28 -3 -33
22 -43 16 -6 37 -15 46 -20 42 -21 95 5 85 42 -3 11 1 19 12 22 9 2 -6 1 -33
-1 -54 -5 -78 12 -69 48 6 23 -4 71 -15 69 -4 -1 -15 -3 -24 -6z m16 -94 c4
-20 15 -29 48 -39 24 -7 37 -15 29 -18 -7 -2 -31 1 -52 8 -37 13 -39 15 -38
54 1 42 3 41 13 -5z"/>
<path d="M280 321 c0 -10 7 -22 16 -25 25 -10 72 -7 79 4 12 20 -17 40 -56 40
-32 0 -39 -4 -39 -19z"/>
<path d="M1830 330 c-8 -4 -41 -13 -72 -19 -65 -14 -79 -26 -67 -58 10 -27 23
-31 14 -4 -6 20 8 35 43 44 23 5 24 4 17 -31 -4 -20 -14 -52 -22 -69 -8 -18
-12 -40 -9 -49 10 -25 16 -14 37 72 11 43 21 80 24 82 2 2 18 7 34 11 20 4 28
10 23 18 -4 7 -13 8 -22 3z"/>
<path d="M1934 327 c-5 -5 -24 -17 -41 -28 -32 -18 -44 -51 -23 -64 6 -3 10 3
10 14 0 11 10 27 22 35 31 22 41 20 27 -6 -7 -13 -13 -35 -14 -50 -2 -15 -10
-35 -19 -44 -17 -17 -18 -36 -1 -35 6 1 16 19 23 41 l14 40 53 -56 c50 -53 74
-63 83 -36 2 7 -4 12 -13 12 -25 0 -115 89 -115 114 0 31 23 59 45 55 28 -6
29 -26 2 -53 -14 -14 -23 -27 -20 -30 10 -10 34 8 49 36 14 27 14 31 -1 48
-17 19 -63 23 -81 7z"/>
<path d="M435 260 c-4 -6 5 -10 19 -10 14 0 26 5 26 10 0 6 -9 10 -19 10 -11
0 -23 -4 -26 -10z"/>
<path d="M786 263 c-11 -3 -26 -12 -34 -20 -8 -8 -21 -12 -28 -9 -17 7 -44 -3
-44 -15 0 -12 48 -1 77 17 12 8 29 14 37 14 8 0 18 5 21 10 6 10 2 11 -29 3z"/>
<path d="M640 230 c0 -5 5 -10 11 -10 5 0 7 5 4 10 -3 6 -8 10 -11 10 -2 0 -4
-4 -4 -10z"/>
<path d="M769 227 c-9 -7 -21 -22 -27 -33 -13 -25 -68 -48 -77 -33 -4 5 -18 9
-33 8 l-27 -1 25 -8 c24 -8 23 -8 -8 -9 -20 -1 -31 3 -27 9 3 6 -1 7 -9 4 -10
-4 -16 -1 -16 7 0 8 -12 15 -30 16 -17 1 -30 -2 -30 -7 0 -6 -7 -10 -15 -10
-16 0 -16 20 0 32 6 5 5 8 -3 8 -8 0 -16 -8 -19 -18 -3 -14 -12 -17 -36 -14
-24 3 -29 2 -21 -7 6 -7 42 -13 83 -14 39 0 71 -4 71 -9 0 -4 17 -9 38 -9 20
-1 51 -4 67 -8 47 -11 83 5 91 42 3 18 11 35 16 38 6 4 9 11 7 17 -3 7 -9 7
-20 -1z"/>
<path d="M400 223 c0 -4 5 -15 10 -23 8 -13 10 -13 10 2 0 9 -4 20 -10 23 -5
3 -10 3 -10 -2z"/>
<path d="M438 213 c7 -3 16 -2 19 1 4 3 -2 6 -13 5 -11 0 -14 -3 -6 -6z"/>
<path d="M370 170 c0 -5 7 -10 16 -10 8 0 12 5 9 10 -3 6 -10 10 -16 10 -5 0
-9 -4 -9 -10z"/>
</g>
</svg>
